<?xml version="1.0" encoding="utf-8"?>
<svg xmlns="http://www.w3.org/2000/svg" viewBox="1.8256 2 32.1744 32" width="714.987px" height="711.111px">
	<path d="M 25.59 11.77 C 25.177 11.12 24.216 11.161 23.86 11.844 C 23.708 12.134 23.708 12.48 23.86 12.77 L 26.36 17.11 L 20.29 16.11 L 25.58 26.7 C 25.944 27.378 26.906 27.409 27.311 26.754 C 27.488 26.469 27.51 26.115 27.37 25.81 L 23.84 18.73 L 30.22 19.79 L 25.59 11.77 Z" class="clr-i-outline clr-i-outline-path-1"/>
	<path d="M 32.12 4 L 30 4 L 30 3.58 C 30 2.707 29.293 2 28.42 2 L 21.58 2 C 20.707 2 20 2.707 20 3.58 L 20 4 L 17.88 4 C 16.842 4 16 4.842 16 5.88 L 16 32.12 C 16 33.158 16.842 34 17.88 34 L 32.12 34 C 33.158 34 34 33.158 34 32.12 L 34 5.88 C 34 4.842 33.158 4 32.12 4 Z M 32 32 L 18 32 L 18 6 L 22 6 L 22 4 L 28 4 L 28 6 L 32 6 L 32 32 Z" class="clr-i-outline clr-i-outline-path-2"/>
	<path d="M 14.16 17.467 L 8.664 12 L 3.168 17.467 C 2.82 17.733 2.889 18.276 3.293 18.445 C 3.535 18.546 3.814 18.469 3.97 18.258 L 8.095 14.167 L 8.095 25.051 C 8.095 25.489 8.569 25.763 8.949 25.544 C 9.125 25.443 9.233 25.254 9.233 25.051 L 9.233 14.167 L 13.358 18.258 C 13.669 18.567 14.198 18.423 14.31 18 C 14.361 17.803 14.305 17.593 14.16 17.45 L 14.16 17.467 Z" class="clr-i-outline clr-i-outline-path-1" style="stroke-width: 1; transform-origin: 8.63616px 18.8105px;" transform="matrix(0, -1, 1, 0, -0.00000126, 8.2e-7)"/>
</svg>